<svg xmlns="http://www.w3.org/2000/svg" viewBox="0 0 1680 1010" width="1680" height="1010" font-family="Inter,Segoe UI,system-ui,sans-serif"><defs><marker id="ah" viewBox="0 0 10 10" refX="9" refY="5" markerWidth="6.5" markerHeight="6.5" orient="auto-start-reverse"><path d="M0 0 L10 5 L0 10 z" fill="#3f4b5e"/></marker><marker id="ahs" viewBox="0 0 10 10" refX="9" refY="5" markerWidth="6.5" markerHeight="6.5" orient="auto-start-reverse"><path d="M0 0 L10 5 L0 10 z" fill="#3f4b5e"/></marker></defs><rect width="1680" height="1010" fill="#0b0f16"/><text x="40" y="44" font-family="Fraunces,Georgia,serif" font-size="26" font-weight="700" fill="#eef2f8">Market Forge <tspan fill="#ff8a3c">/</tspan> how the desk works</text><text x="1640" y="44" text-anchor="end" font-family="Inter,Segoe UI,system-ui,sans-serif" font-size="12.5" fill="#93a3b8">everything above runs on ONE machine - your keys never leave it</text><rect x="34" y="70" width="1612" height="185" rx="16" fill="#111826" stroke="#1e2735"/><text x="52" y="94" font-family="Inter,Segoe UI,system-ui,sans-serif" font-size="12.5" font-weight="700" letter-spacing="1.6" fill="#7f8ea3">1 — YOU AND THE DASHBOARD</text><text x="52" y="112" font-family="Inter,Segoe UI,system-ui,sans-serif" font-size="12" fill="#5d6b7e">what you look at and talk to</text><rect x="34" y="285" width="1612" height="165" rx="16" fill="#111826" stroke="#1e2735"/><text x="52" y="309" font-family="Inter,Segoe UI,system-ui,sans-serif" font-size="12.5" font-weight="700" letter-spacing="1.6" fill="#7f8ea3">2 — THE FILE BUS</text><text x="52" y="327" font-family="Inter,Segoe UI,system-ui,sans-serif" font-size="12" fill="#5d6b7e">plain files - this is how any AI agent drives the desk</text><rect x="34" y="480" width="1612" height="190" rx="16" fill="#111826" stroke="#1e2735"/><text x="52" y="504" font-family="Inter,Segoe UI,system-ui,sans-serif" font-size="12.5" font-weight="700" letter-spacing="1.6" fill="#7f8ea3">3 — THE ENGINE</text><text x="52" y="522" font-family="Inter,Segoe UI,system-ui,sans-serif" font-size="12" fill="#5d6b7e">scan - verify - score - gate - order</text><rect x="34" y="700" width="1612" height="165" rx="16" fill="#111826" stroke="#1e2735"/><text x="52" y="724" font-family="Inter,Segoe UI,system-ui,sans-serif" font-size="12.5" font-weight="700" letter-spacing="1.6" fill="#7f8ea3">4 — OUTSIDE YOUR MACHINE</text><text x="52" y="742" font-family="Inter,Segoe UI,system-ui,sans-serif" font-size="12" fill="#5d6b7e">the only things that leave your computer</text><g><rect x="60" y="156" width="140" height="66" rx="11" fill="#151d2a" stroke="#4f9dff" stroke-opacity=".55" stroke-width="1.4"/><rect x="60" y="156" width="4.5" height="66" rx="2.2" fill="#4f9dff"/><text x="76" y="177" font-family="Inter,Segoe UI,system-ui,sans-serif" font-size="9.5" font-weight="700" letter-spacing="1.3" fill="#4f9dff">PERSON</text><text x="76" y="196" font-family="Inter,Segoe UI,system-ui,sans-serif" font-size="14.5" font-weight="700" fill="#eef2f8">You</text><text x="76" y="212" font-family="Inter,Segoe UI,system-ui,sans-serif" font-size="11.5" fill="#93a3b8">voice, chat, clicks</text></g><g><rect x="240" y="156" width="205" height="66" rx="11" fill="#151d2a" stroke="#4f9dff" stroke-opacity=".55" stroke-width="1.4"/><rect x="240" y="156" width="4.5" height="66" rx="2.2" fill="#4f9dff"/><text x="256" y="177" font-family="Inter,Segoe UI,system-ui,sans-serif" font-size="9.5" font-weight="700" letter-spacing="1.3" fill="#4f9dff">BROWSER</text><text x="256" y="196" font-family="Inter,Segoe UI,system-ui,sans-serif" font-size="14.5" font-weight="700" fill="#eef2f8">Dashboard</text><text x="256" y="212" font-family="Inter,Segoe UI,system-ui,sans-serif" font-size="11.5" fill="#93a3b8">radar, charts, rules</text></g><g><rect x="485" y="156" width="185" height="66" rx="11" fill="#151d2a" stroke="#4f9dff" stroke-opacity=".55" stroke-width="1.4"/><rect x="485" y="156" width="4.5" height="66" rx="2.2" fill="#4f9dff"/><text x="501" y="177" font-family="Inter,Segoe UI,system-ui,sans-serif" font-size="9.5" font-weight="700" letter-spacing="1.3" fill="#4f9dff">LOCAL APP</text><text x="501" y="196" font-family="Inter,Segoe UI,system-ui,sans-serif" font-size="14.5" font-weight="700" fill="#eef2f8">app.py</text><text x="501" y="212" font-family="Inter,Segoe UI,system-ui,sans-serif" font-size="11.5" fill="#93a3b8">serves + proxies + logs</text></g><g><rect x="710" y="156" width="200" height="66" rx="11" fill="#151d2a" stroke="#4f9dff" stroke-opacity=".55" stroke-width="1.4"/><rect x="710" y="156" width="4.5" height="66" rx="2.2" fill="#4f9dff"/><text x="726" y="177" font-family="Inter,Segoe UI,system-ui,sans-serif" font-size="9.5" font-weight="700" letter-spacing="1.3" fill="#4f9dff">AGENT TURN</text><text x="726" y="196" font-family="Inter,Segoe UI,system-ui,sans-serif" font-size="14.5" font-weight="700" fill="#eef2f8">Copilot bridge</text><text x="726" y="212" font-family="Inter,Segoe UI,system-ui,sans-serif" font-size="11.5" fill="#93a3b8">one turn per message</text></g><g><rect x="950" y="156" width="210" height="66" rx="11" fill="#151d2a" stroke="#4f9dff" stroke-opacity=".55" stroke-width="1.4" stroke-dasharray="6 4"/><rect x="950" y="156" width="4.5" height="66" rx="2.2" fill="#4f9dff"/><text x="966" y="177" font-family="Inter,Segoe UI,system-ui,sans-serif" font-size="9.5" font-weight="700" letter-spacing="1.3" fill="#4f9dff">AI AGENT</text><text x="966" y="196" font-family="Inter,Segoe UI,system-ui,sans-serif" font-size="14.5" font-weight="700" fill="#eef2f8">Your coding agent</text><text x="966" y="212" font-family="Inter,Segoe UI,system-ui,sans-serif" font-size="11.5" fill="#93a3b8">Claude Code, Codex, any</text></g><g><rect x="1200" y="156" width="180" height="66" rx="11" fill="#151d2a" stroke="#64748b" stroke-opacity=".55" stroke-width="1.4" stroke-dasharray="6 4"/><rect x="1200" y="156" width="4.5" height="66" rx="2.2" fill="#64748b"/><text x="1216" y="177" font-family="Inter,Segoe UI,system-ui,sans-serif" font-size="9.5" font-weight="700" letter-spacing="1.3" fill="#64748b">OPTIONAL</text><text x="1216" y="196" font-family="Inter,Segoe UI,system-ui,sans-serif" font-size="14.5" font-weight="700" fill="#eef2f8">Voicebox</text><text x="1216" y="212" font-family="Inter,Segoe UI,system-ui,sans-serif" font-size="11.5" fill="#93a3b8">spoken replies</text></g><g><rect x="485" y="346" width="185" height="66" rx="11" fill="#151d2a" stroke="#a78bfa" stroke-opacity=".55" stroke-width="1.4"/><rect x="485" y="346" width="4.5" height="66" rx="2.2" fill="#a78bfa"/><text x="501" y="367" font-family="Inter,Segoe UI,system-ui,sans-serif" font-size="9.5" font-weight="700" letter-spacing="1.3" fill="#a78bfa">FILE</text><text x="501" y="386" font-family="Inter,Segoe UI,system-ui,sans-serif" font-size="14.5" font-weight="700" fill="#eef2f8">journal.jsonl</text><text x="501" y="402" font-family="Inter,Segoe UI,system-ui,sans-serif" font-size="11.5" fill="#93a3b8">every scan, chat, order</text></g><g><rect x="710" y="346" width="200" height="66" rx="11" fill="#151d2a" stroke="#a78bfa" stroke-opacity=".55" stroke-width="1.4"/><rect x="710" y="346" width="4.5" height="66" rx="2.2" fill="#a78bfa"/><text x="726" y="367" font-family="Inter,Segoe UI,system-ui,sans-serif" font-size="9.5" font-weight="700" letter-spacing="1.3" fill="#a78bfa">FILES</text><text x="726" y="386" font-family="Inter,Segoe UI,system-ui,sans-serif" font-size="14.5" font-weight="700" fill="#eef2f8">panels/*.html</text><text x="726" y="402" font-family="Inter,Segoe UI,system-ui,sans-serif" font-size="11.5" fill="#93a3b8">boards you watch appear</text></g><g><rect x="950" y="346" width="210" height="66" rx="11" fill="#151d2a" stroke="#a78bfa" stroke-opacity=".55" stroke-width="1.4"/><rect x="950" y="346" width="4.5" height="66" rx="2.2" fill="#a78bfa"/><text x="966" y="367" font-family="Inter,Segoe UI,system-ui,sans-serif" font-size="9.5" font-weight="700" letter-spacing="1.3" fill="#a78bfa">FILE</text><text x="966" y="386" font-family="Inter,Segoe UI,system-ui,sans-serif" font-size="14.5" font-weight="700" fill="#eef2f8">memory.md</text><text x="966" y="402" font-family="Inter,Segoe UI,system-ui,sans-serif" font-size="11.5" fill="#93a3b8">your standing orders</text></g><g><rect x="60" y="546" width="155" height="66" rx="11" fill="#151d2a" stroke="#ff8a3c" stroke-opacity=".55" stroke-width="1.4"/><rect x="60" y="546" width="4.5" height="66" rx="2.2" fill="#ff8a3c"/><text x="76" y="567" font-family="Inter,Segoe UI,system-ui,sans-serif" font-size="9.5" font-weight="700" letter-spacing="1.3" fill="#ff8a3c">LOCAL API</text><text x="76" y="586" font-family="Inter,Segoe UI,system-ui,sans-serif" font-size="14.5" font-weight="700" fill="#eef2f8">bot API</text><text x="76" y="602" font-family="Inter,Segoe UI,system-ui,sans-serif" font-size="11.5" fill="#93a3b8">status, radar, order</text></g><g><rect x="250" y="546" width="175" height="66" rx="11" fill="#151d2a" stroke="#ff8a3c" stroke-opacity=".55" stroke-width="1.4"/><rect x="250" y="546" width="4.5" height="66" rx="2.2" fill="#ff8a3c"/><text x="266" y="567" font-family="Inter,Segoe UI,system-ui,sans-serif" font-size="9.5" font-weight="700" letter-spacing="1.3" fill="#ff8a3c">STEP</text><text x="266" y="586" font-family="Inter,Segoe UI,system-ui,sans-serif" font-size="14.5" font-weight="700" fill="#eef2f8">Catalyst scan</text><text x="266" y="602" font-family="Inter,Segoe UI,system-ui,sans-serif" font-size="11.5" fill="#93a3b8">today's big movers</text></g><g><rect x="460" y="546" width="190" height="66" rx="11" fill="#151d2a" stroke="#ff8a3c" stroke-opacity=".55" stroke-width="1.4"/><rect x="460" y="546" width="4.5" height="66" rx="2.2" fill="#ff8a3c"/><text x="476" y="567" font-family="Inter,Segoe UI,system-ui,sans-serif" font-size="9.5" font-weight="700" letter-spacing="1.3" fill="#ff8a3c">STEP</text><text x="476" y="586" font-family="Inter,Segoe UI,system-ui,sans-serif" font-size="14.5" font-weight="700" fill="#eef2f8">Verify the move</text><text x="476" y="602" font-family="Inter,Segoe UI,system-ui,sans-serif" font-size="11.5" fill="#93a3b8">vs live tape + real close</text></g><g><rect x="685" y="546" width="175" height="66" rx="11" fill="#151d2a" stroke="#ff8a3c" stroke-opacity=".55" stroke-width="1.4"/><rect x="685" y="546" width="4.5" height="66" rx="2.2" fill="#ff8a3c"/><text x="701" y="567" font-family="Inter,Segoe UI,system-ui,sans-serif" font-size="9.5" font-weight="700" letter-spacing="1.3" fill="#ff8a3c">STEP</text><text x="701" y="586" font-family="Inter,Segoe UI,system-ui,sans-serif" font-size="14.5" font-weight="700" fill="#eef2f8">Score it</text><text x="701" y="602" font-family="Inter,Segoe UI,system-ui,sans-serif" font-size="11.5" fill="#93a3b8">signal or noise, 0-100</text></g><g><rect x="895" y="546" width="185" height="66" rx="11" fill="#151d2a" stroke="#f05252" stroke-opacity=".55" stroke-width="1.4"/><rect x="895" y="546" width="4.5" height="66" rx="2.2" fill="#f05252"/><text x="911" y="567" font-family="Inter,Segoe UI,system-ui,sans-serif" font-size="9.5" font-weight="700" letter-spacing="1.3" fill="#f05252">RISK GATE</text><text x="911" y="586" font-family="Inter,Segoe UI,system-ui,sans-serif" font-size="14.5" font-weight="700" fill="#eef2f8">Every gate must pass</text><text x="911" y="602" font-family="Inter,Segoe UI,system-ui,sans-serif" font-size="11.5" fill="#93a3b8">size, caps, floor, killswitch</text></g><g><rect x="1115" y="546" width="210" height="66" rx="11" fill="#151d2a" stroke="#34d399" stroke-opacity=".55" stroke-width="1.4"/><rect x="1115" y="546" width="4.5" height="66" rx="2.2" fill="#34d399"/><text x="1131" y="567" font-family="Inter,Segoe UI,system-ui,sans-serif" font-size="9.5" font-weight="700" letter-spacing="1.3" fill="#34d399">ORDER</text><text x="1131" y="586" font-family="Inter,Segoe UI,system-ui,sans-serif" font-size="14.5" font-weight="700" fill="#eef2f8">Buy + trailing stop</text><text x="1131" y="602" font-family="Inter,Segoe UI,system-ui,sans-serif" font-size="11.5" fill="#93a3b8">exit armed at fill</text></g><g><rect x="1360" y="546" width="155" height="66" rx="11" fill="#151d2a" stroke="#c084fc" stroke-opacity=".55" stroke-width="1.4"/><rect x="1360" y="546" width="4.5" height="66" rx="2.2" fill="#c084fc"/><text x="1376" y="567" font-family="Inter,Segoe UI,system-ui,sans-serif" font-size="9.5" font-weight="700" letter-spacing="1.3" fill="#c084fc">DATA</text><text x="1376" y="586" font-family="Inter,Segoe UI,system-ui,sans-serif" font-size="14.5" font-weight="700" fill="#eef2f8">trades.db</text><text x="1376" y="602" font-family="Inter,Segoe UI,system-ui,sans-serif" font-size="11.5" fill="#93a3b8">orders and alerts</text></g><g><rect x="250" y="762" width="200" height="66" rx="11" fill="#151d2a" stroke="#64748b" stroke-opacity=".55" stroke-width="1.4"/><rect x="250" y="762" width="4.5" height="66" rx="2.2" fill="#64748b"/><text x="266" y="783" font-family="Inter,Segoe UI,system-ui,sans-serif" font-size="9.5" font-weight="700" letter-spacing="1.3" fill="#64748b">BROKER + DATA</text><text x="266" y="802" font-family="Inter,Segoe UI,system-ui,sans-serif" font-size="14.5" font-weight="700" fill="#eef2f8">Alpaca</text><text x="266" y="818" font-family="Inter,Segoe UI,system-ui,sans-serif" font-size="11.5" fill="#93a3b8">prices in, orders out</text></g><g><rect x="685" y="762" width="175" height="66" rx="11" fill="#151d2a" stroke="#64748b" stroke-opacity=".55" stroke-width="1.4"/><rect x="685" y="762" width="4.5" height="66" rx="2.2" fill="#64748b"/><text x="701" y="783" font-family="Inter,Segoe UI,system-ui,sans-serif" font-size="9.5" font-weight="700" letter-spacing="1.3" fill="#64748b">LOCAL MODEL</text><text x="701" y="802" font-family="Inter,Segoe UI,system-ui,sans-serif" font-size="14.5" font-weight="700" fill="#eef2f8">Ollama</text><text x="701" y="818" font-family="Inter,Segoe UI,system-ui,sans-serif" font-size="11.5" fill="#93a3b8">scores each catalyst</text></g><g><rect x="895" y="762" width="185" height="66" rx="11" fill="#151d2a" stroke="#64748b" stroke-opacity=".55" stroke-width="1.4"/><rect x="895" y="762" width="4.5" height="66" rx="2.2" fill="#64748b"/><text x="911" y="783" font-family="Inter,Segoe UI,system-ui,sans-serif" font-size="9.5" font-weight="700" letter-spacing="1.3" fill="#64748b">PUBLIC FEED</text><text x="911" y="802" font-family="Inter,Segoe UI,system-ui,sans-serif" font-size="14.5" font-weight="700" fill="#eef2f8">Reddit</text><text x="911" y="818" font-family="Inter,Segoe UI,system-ui,sans-serif" font-size="11.5" fill="#93a3b8">retail chatter</text></g><g><rect x="1115" y="762" width="210" height="66" rx="11" fill="#151d2a" stroke="#64748b" stroke-opacity=".55" stroke-width="1.4"/><rect x="1115" y="762" width="4.5" height="66" rx="2.2" fill="#64748b"/><text x="1131" y="783" font-family="Inter,Segoe UI,system-ui,sans-serif" font-size="9.5" font-weight="700" letter-spacing="1.3" fill="#64748b">OPTIONAL</text><text x="1131" y="802" font-family="Inter,Segoe UI,system-ui,sans-serif" font-size="14.5" font-weight="700" fill="#eef2f8">Discord</text><text x="1131" y="818" font-family="Inter,Segoe UI,system-ui,sans-serif" font-size="11.5" fill="#93a3b8">alerts to your phone</text></g><path d="M 200 189.0 L 234 189.0" fill="none" stroke="#3f4b5e" stroke-width="1.6" stroke-linejoin="round" marker-end="url(#ah)"/><rect x="177.55" y="135" width="78.9" height="18" rx="9" fill="#0b0f16" stroke="#1e2735"/><text x="217.0" y="148" text-anchor="middle" font-family="Inter,Segoe UI,system-ui,sans-serif" font-size="10.5" fill="#8ba0ba">talk / type</text><path d="M 445 189.0 L 479 189.0" fill="none" stroke="#3f4b5e" stroke-width="1.6" stroke-linejoin="round" marker-end="url(#ah)" marker-start="url(#ahs)"/><rect x="443.2" y="135" width="37.6" height="18" rx="9" fill="#0b0f16" stroke="#1e2735"/><text x="462.0" y="148" text-anchor="middle" font-family="Inter,Segoe UI,system-ui,sans-serif" font-size="10.5" fill="#8ba0ba">HTTP</text><path d="M 670 189.0 L 704 189.0" fill="none" stroke="#3f4b5e" stroke-width="1.6" stroke-linejoin="round" marker-end="url(#ah)"/><rect x="644.6" y="135" width="84.80000000000001" height="18" rx="9" fill="#0b0f16" stroke="#1e2735"/><text x="687.0" y="148" text-anchor="middle" font-family="Inter,Segoe UI,system-ui,sans-serif" font-size="10.5" fill="#8ba0ba">your message</text><path d="M 577.5 152 L 577.5 112 L 1290.0 112 L 1290.0 150" fill="none" stroke="#3f4b5e" stroke-width="1.6" stroke-linejoin="round" stroke-dasharray="7 5" marker-end="url(#ah)"/><rect x="928.75" y="103" width="102.5" height="18" rx="9" fill="#0b0f16" stroke="#1e2735"/><text x="980" y="116" text-anchor="middle" font-family="Inter,Segoe UI,system-ui,sans-serif" font-size="10.5" fill="#8ba0ba">speak the reply</text><path d="M 810.0 226 L 810.0 340" fill="none" stroke="#3f4b5e" stroke-width="1.6" stroke-linejoin="round" marker-end="url(#ah)"/><rect x="761.7" y="253" width="96.60000000000001" height="18" rx="9" fill="#0b0f16" stroke="#1e2735"/><text x="810.0" y="266" text-anchor="middle" font-family="Inter,Segoe UI,system-ui,sans-serif" font-size="10.5" fill="#8ba0ba">writes a board</text><path d="M 577.5 226 L 577.5 340" fill="none" stroke="#3f4b5e" stroke-width="1.6" stroke-linejoin="round" marker-end="url(#ah)"/><rect x="526.25" y="267" width="102.5" height="18" rx="9" fill="#0b0f16" stroke="#1e2735"/><text x="577.5" y="280" text-anchor="middle" font-family="Inter,Segoe UI,system-ui,sans-serif" font-size="10.5" fill="#8ba0ba">logs everything</text><path d="M 1055.0 226 L 1055.0 340" fill="none" stroke="#3f4b5e" stroke-width="1.6" stroke-linejoin="round" marker-end="url(#ah)" marker-start="url(#ahs)"/><rect x="1018.5" y="253" width="73.0" height="18" rx="9" fill="#0b0f16" stroke="#1e2735"/><text x="1055.0" y="266" text-anchor="middle" font-family="Inter,Segoe UI,system-ui,sans-serif" font-size="10.5" fill="#8ba0ba">same files</text><path d="M 750 340 L 750 262 L 300 262 L 300 226" fill="none" stroke="#3f4b5e" stroke-width="1.6" stroke-linejoin="round" marker-end="url(#ah)"/><rect x="477.6" y="253" width="84.80000000000001" height="18" rx="9" fill="#0b0f16" stroke="#1e2735"/><text x="520" y="266" text-anchor="middle" font-family="Inter,Segoe UI,system-ui,sans-serif" font-size="10.5" fill="#8ba0ba">renders live</text><path d="M 980 340 L 980 275 L 870 275 L 870 226" fill="none" stroke="#3f4b5e" stroke-width="1.6" stroke-linejoin="round" marker-end="url(#ah)"/><rect x="939.9" y="266" width="120.2" height="18" rx="9" fill="#0b0f16" stroke="#1e2735"/><text x="1000" y="279" text-anchor="middle" font-family="Inter,Segoe UI,system-ui,sans-serif" font-size="10.5" fill="#8ba0ba">honored every turn</text><path d="M 676 379.0 L 704 379.0" fill="none" stroke="#3f4b5e" stroke-width="1.6" stroke-linejoin="round" stroke-dasharray="7 5" marker-end="url(#ah)"/><rect x="647.6" y="325" width="84.80000000000001" height="18" rx="9" fill="#0b0f16" stroke="#1e2735"/><text x="690.0" y="338" text-anchor="middle" font-family="Inter,Segoe UI,system-ui,sans-serif" font-size="10.5" fill="#8ba0ba">replay a day</text><path d="M 479 189.0 L 137.5 189.0 L 137.5 540" fill="none" stroke="#3f4b5e" stroke-width="1.6" stroke-linejoin="round" marker-end="url(#ah)"/><rect x="115.75" y="457" width="43.5" height="18" rx="9" fill="#0b0f16" stroke="#1e2735"/><text x="137.5" y="470" text-anchor="middle" font-family="Inter,Segoe UI,system-ui,sans-serif" font-size="10.5" fill="#8ba0ba">proxy</text><path d="M 215 579.0 L 244 579.0" fill="none" stroke="#3f4b5e" stroke-width="1.6" stroke-linejoin="round" marker-end="url(#ah)"/><path d="M 425 579.0 L 454 579.0" fill="none" stroke="#3f4b5e" stroke-width="1.6" stroke-linejoin="round" marker-end="url(#ah)"/><rect x="403.0" y="525" width="73.0" height="18" rx="9" fill="#0b0f16" stroke="#1e2735"/><text x="439.5" y="538" text-anchor="middle" font-family="Inter,Segoe UI,system-ui,sans-serif" font-size="10.5" fill="#8ba0ba">raw movers</text><path d="M 650 579.0 L 679 579.0" fill="none" stroke="#3f4b5e" stroke-width="1.6" stroke-linejoin="round" marker-end="url(#ah)"/><rect x="613.25" y="525" width="102.5" height="18" rx="9" fill="#0b0f16" stroke="#1e2735"/><text x="664.5" y="538" text-anchor="middle" font-family="Inter,Segoe UI,system-ui,sans-serif" font-size="10.5" fill="#8ba0ba">real moves only</text><path d="M 860 579.0 L 889 579.0" fill="none" stroke="#3f4b5e" stroke-width="1.6" stroke-linejoin="round" marker-end="url(#ah)"/><rect x="849.8" y="525" width="49.400000000000006" height="18" rx="9" fill="#0b0f16" stroke="#1e2735"/><text x="874.5" y="538" text-anchor="middle" font-family="Inter,Segoe UI,system-ui,sans-serif" font-size="10.5" fill="#8ba0ba">scored</text><path d="M 1080 579.0 L 1109 579.0" fill="none" stroke="#34d399" stroke-width="1.6" stroke-linejoin="round" marker-end="url(#ah)"/><rect x="1060.95" y="525" width="67.1" height="18" rx="9" fill="#0b0f16" stroke="#1e2735"/><text x="1094.5" y="538" text-anchor="middle" font-family="Inter,Segoe UI,system-ui,sans-serif" font-size="10.5" fill="#8ba0ba">all clear</text><path d="M 1325 579.0 L 1354 579.0" fill="none" stroke="#3f4b5e" stroke-width="1.6" stroke-linejoin="round" marker-end="url(#ah)"/><path d="M 337.5 616 L 337.5 756" fill="none" stroke="#3f4b5e" stroke-width="1.6" stroke-linejoin="round" marker-end="url(#ah)"/><rect x="292.15" y="681" width="90.7" height="18" rx="9" fill="#0b0f16" stroke="#1e2735"/><text x="337.5" y="694" text-anchor="middle" font-family="Inter,Segoe UI,system-ui,sans-serif" font-size="10.5" fill="#8ba0ba">movers + bars</text><path d="M 772.5 616 L 772.5 756" fill="none" stroke="#3f4b5e" stroke-width="1.6" stroke-linejoin="round" stroke-dasharray="7 5" marker-end="url(#ah)"/><rect x="744.85" y="681" width="55.300000000000004" height="18" rx="9" fill="#0b0f16" stroke="#1e2735"/><text x="772.5" y="694" text-anchor="middle" font-family="Inter,Segoe UI,system-ui,sans-serif" font-size="10.5" fill="#8ba0ba">rate it</text><path d="M 935 616 L 935 676 L 987.5 676 L 987.5 756" fill="none" stroke="#3f4b5e" stroke-width="1.6" stroke-linejoin="round" stroke-dasharray="7 5" marker-end="url(#ah)"/><rect x="959.85" y="667" width="55.300000000000004" height="18" rx="9" fill="#0b0f16" stroke="#1e2735"/><text x="987.5" y="680" text-anchor="middle" font-family="Inter,Segoe UI,system-ui,sans-serif" font-size="10.5" fill="#8ba0ba">chatter</text><path d="M 1220.0 616 L 1220.0 700 L 405 700 L 405 756" fill="none" stroke="#34d399" stroke-width="1.6" stroke-linejoin="round" marker-end="url(#ah)"/><rect x="717.6" y="691" width="84.80000000000001" height="18" rx="9" fill="#0b0f16" stroke="#1e2735"/><text x="760" y="704" text-anchor="middle" font-family="Inter,Segoe UI,system-ui,sans-serif" font-size="10.5" fill="#8ba0ba">order + stop</text><path d="M 1295 616 L 1295 662 L 1220.0 662 L 1220.0 756" fill="none" stroke="#3f4b5e" stroke-width="1.6" stroke-linejoin="round" stroke-dasharray="7 5" marker-end="url(#ah)"/><rect x="1195.3" y="653" width="49.400000000000006" height="18" rx="9" fill="#0b0f16" stroke="#1e2735"/><text x="1220.0" y="666" text-anchor="middle" font-family="Inter,Segoe UI,system-ui,sans-serif" font-size="10.5" fill="#8ba0ba">alerts</text><path d="M 97.5 540 L 97.5 288 L 342.5 288 L 342.5 226" fill="none" stroke="#3f4b5e" stroke-width="1.6" stroke-linejoin="round" marker-end="url(#ah)"/><rect x="252.2" y="267" width="155.60000000000002" height="18" rx="9" fill="#0b0f16" stroke="#1e2735"/><text x="330" y="280" text-anchor="middle" font-family="Inter,Segoe UI,system-ui,sans-serif" font-size="10.5" fill="#8ba0ba">radar, positions, charts</text><rect x="40" y="968" width="11" height="11" rx="3" fill="#4f9dff"/><text x="58" y="978" font-family="Inter,Segoe UI,system-ui,sans-serif" font-size="11.5" fill="#93a3b8">Your desk</text><rect x="129.4" y="968" width="11" height="11" rx="3" fill="#a78bfa"/><text x="147.4" y="978" font-family="Inter,Segoe UI,system-ui,sans-serif" font-size="11.5" fill="#93a3b8">Files any agent can drive</text><rect x="324.4" y="968" width="11" height="11" rx="3" fill="#ff8a3c"/><text x="342.4" y="978" font-family="Inter,Segoe UI,system-ui,sans-serif" font-size="11.5" fill="#93a3b8">Pipeline step</text><rect x="440.2" y="968" width="11" height="11" rx="3" fill="#f05252"/><text x="458.2" y="978" font-family="Inter,Segoe UI,system-ui,sans-serif" font-size="11.5" fill="#93a3b8">Risk gate</text><rect x="529.6" y="968" width="11" height="11" rx="3" fill="#34d399"/><text x="547.6" y="978" font-family="Inter,Segoe UI,system-ui,sans-serif" font-size="11.5" fill="#93a3b8">Order + exit</text><rect x="638.8" y="968" width="11" height="11" rx="3" fill="#c084fc"/><text x="656.8" y="978" font-family="Inter,Segoe UI,system-ui,sans-serif" font-size="11.5" fill="#93a3b8">Data</text><rect x="695.1999999999999" y="968" width="11" height="11" rx="3" fill="#64748b"/><text x="713.1999999999999" y="978" font-family="Inter,Segoe UI,system-ui,sans-serif" font-size="11.5" fill="#93a3b8">Outside</text><text x="1640" y="978" text-anchor="end" font-family="Inter,Segoe UI,system-ui,sans-serif" font-size="11.5" fill="#5d6b7e">dashed = optional or read-only</text></svg>